<svg width="328" height="173" viewBox="0 0 328 173" fill="none" xmlns="http://www.w3.org/2000/svg">
<mask id="mask0_2037_576477" style="mask-type:alpha" maskUnits="userSpaceOnUse" x="6" y="-4" width="315" height="177">
<rect x="6.5" y="-4" width="314" height="176.627" fill="#D9D9D9"/>
</mask>
<g mask="url(#mask0_2037_576477)">
<mask id="mask1_2037_576477" style="mask-type:alpha" maskUnits="userSpaceOnUse" x="6" y="27" width="161" height="109">
<rect x="6.96094" y="27.4922" width="159.466" height="108.3" fill="url(#paint0_linear_2037_576477)"/>
</mask>
<g mask="url(#mask1_2037_576477)">
<path d="M98.9472 110.305L90.3228 111.09C89.6014 111.09 89.0156 111.675 89.0156 112.397V135.681H99.6913H113.315V115.137C113.315 114.565 112.944 114.06 112.399 113.889L100.4 110.527C99.9307 110.38 99.4405 110.305 98.9472 110.305Z" fill="url(#paint1_linear_2037_576477)"/>
<path d="M99.0587 118.778L94.6797 117.796C93.9717 117.638 93.3047 118.203 93.3047 118.962V136.041H99.959V119.943C99.959 119.381 99.5839 118.895 99.0587 118.778Z" fill="url(#paint2_linear_2037_576477)"/>
<path d="M100.27 119.627C100.27 119.065 99.8772 118.578 99.3274 118.461L94.7377 117.48C93.9957 117.322 93.2969 117.887 93.2969 118.645V118.958C93.2969 118.199 93.9638 117.634 94.6719 117.792L99.0509 118.774C99.5761 118.891 99.9501 119.377 99.9501 119.939V136.037H100.27V119.627Z" fill="url(#paint3_linear_2037_576477)"/>
<path d="M99.0509 118.778L94.6719 117.796C93.9638 117.638 93.2969 118.203 93.2969 118.962V124.432V136.04H99.9512V121.132V119.943C99.9512 119.381 99.5761 118.895 99.0509 118.778Z" fill="url(#paint4_linear_2037_576477)"/>
<path opacity="0.25" d="M95.5331 123.542L99.9512 121.129V124.748L93.2969 128.44V124.784L95.5331 123.542Z" fill="url(#paint5_linear_2037_576477)"/>
<path opacity="0.25" d="M93.2969 131.404L99.9512 127.738V129.228L93.2969 133.087V131.404Z" fill="url(#paint6_linear_2037_576477)"/>
<g opacity="0.5">
<path d="M58.3354 71.0295H55.2188L55.3581 55.2714L58.3354 54.0312V71.0295Z" fill="url(#paint7_linear_2037_576477)"/>
<path d="M64.1541 72.0735H58.1719V54.0312L64.1541 56.0856V72.0735Z" fill="url(#paint8_linear_2037_576477)"/>
</g>
<path d="M39.1819 91.6466H32.7578L33.0451 59.1656L39.1819 56.6094V91.6466Z" fill="url(#paint9_linear_2037_576477)"/>
<path d="M51.1667 93.7985H38.8359V56.6094L51.1667 60.8438V93.7985Z" fill="url(#paint10_linear_2037_576477)"/>
<line x1="39.1003" y1="60.4061" x2="51.2512" y2="64.4564" stroke="#B5D7F7" stroke-width="0.535519"/>
<line x1="39.1003" y1="64.0858" x2="51.2512" y2="68.1361" stroke="#B5D7F7" stroke-width="0.535519"/>
<line x1="39.1003" y1="67.7694" x2="51.2512" y2="71.8197" stroke="#B5D7F7" stroke-width="0.535519"/>
<path d="M34.4062 61.3981V71.5238L37.536 72.0762V60.1094L34.4062 61.3981Z" fill="url(#paint11_linear_2037_576477)"/>
<path d="M28.8692 103.174H23.5391V67.922L28.8692 66.1836V103.174Z" fill="url(#paint12_linear_2037_576477)"/>
<path d="M28.8672 66.1836L41.5793 69.9307V102.894H28.8672V66.1836Z" fill="url(#paint13_linear_2037_576477)"/>
<path d="M78.1632 94.3678H73.2656L73.4846 69.605L78.1632 67.6562V94.3678Z" fill="url(#paint14_linear_2037_576477)"/>
<path d="M87.3069 96.0083H77.9062V67.6562L87.3069 70.8845V96.0083Z" fill="url(#paint15_linear_2037_576477)"/>
<path d="M95.5229 99.0139H92.4062L92.5456 83.2558L95.5229 82.0156V99.0139Z" fill="url(#paint16_linear_2037_576477)"/>
<path d="M101.342 100.058H95.3594V82.0156L101.342 84.0699V100.058Z" fill="url(#paint17_linear_2037_576477)"/>
<path d="M65.6534 97.0399H61.8438V71.844L65.6534 70.6016V97.0399Z" fill="url(#paint18_linear_2037_576477)"/>
<path d="M65.6562 70.6016L74.7421 73.2797V96.8395H65.6562V70.6016Z" fill="url(#paint19_linear_2037_576477)"/>
<path d="M87.1403 102L82.0995 102.402C81.6771 102.402 81.3359 102.744 81.3359 103.165V112.245H87.575H95.5386V105.053C95.5386 104.719 95.3218 104.424 95.0032 104.325L87.9902 102.129C87.7138 102.044 87.4281 102 87.1403 102Z" fill="url(#paint20_linear_2037_576477)"/>
<path d="M91.9785 110.664L83.3541 111.449C82.6327 111.449 82.0469 112.034 82.0469 112.756V136.041H92.7215H106.347V115.496C106.347 114.925 105.976 114.419 105.43 114.249L91.9785 110.664Z" fill="url(#paint21_linear_2037_576477)"/>
<path d="M91.9788 110.664V136.041L81.8438 137.711L85.0573 111.294L91.9788 110.664Z" fill="url(#paint22_linear_2037_576477)"/>
<path d="M83.6979 97.3586L44.3177 86.5159C42.7736 86.0904 41.1655 85.875 39.5486 85.875L11.243 87.4636C8.87422 87.4636 6.95312 89.1532 6.95312 91.2381V96.5409C7.60617 95.9968 8.57758 95.951 9.67721 95.951L23.1533 104.479C24.7712 104.479 42.1213 103.604 43.7729 103.926L82.8031 109.633C84.5927 110.127 86.7066 112.218 86.7066 113.868V100.962C86.7066 99.3104 85.4875 97.8518 83.6979 97.3586Z" fill="url(#paint23_linear_2037_576477)"/>
<path d="M83.7609 100.677C83.7185 100.67 83.6772 100.656 83.6359 100.646L44.4448 92.4439C42.8149 92.1256 41.21 91.9612 39.6138 91.957C39.5704 91.957 39.528 91.9581 39.4845 91.9601L9.73371 93.5426C9.69568 93.5446 9.65873 93.5457 9.6207 93.5457C8.73948 93.5467 7.94409 93.5831 7.33126 93.89C7.09764 94.0076 6.95312 94.225 6.95312 94.4612V100.994C6.95312 101.426 7.42036 101.748 7.89411 101.632C8.40155 101.509 8.98939 101.49 9.6207 101.489C9.65873 101.489 9.69568 101.488 9.73371 101.486L39.4856 99.9034C39.528 99.9013 39.5704 99.9003 39.6117 99.9003C41.2057 99.9034 42.7171 100.023 44.4437 100.269L83.5479 106.199C83.6598 106.215 83.7696 106.24 83.8761 106.275C85.5679 106.813 86.7056 108.228 86.7056 109.823V104.263C86.7077 102.631 86.7077 101.186 83.7609 100.677Z" fill="url(#paint24_linear_2037_576477)"/>
<path d="M83.6979 108.622L44.4437 102.669C42.6954 102.42 41.1666 102.301 39.5486 102.301L9.67721 103.89C8.57758 103.89 7.60617 103.936 6.95312 104.48V141.749L41.9891 140.954H86.7066V112.224C86.7066 110.574 86.7066 109.12 83.6979 108.622Z" fill="url(#paint25_linear_2037_576477)"/>
<path d="M84.5889 113.209C84.5889 111.1 83.022 110.938 83.022 110.938C83.022 110.938 57.4817 107.125 52.7801 106.664C50.3961 106.43 49.1498 107.048 48.5 107.713C49.2334 107.247 50.3961 106.92 52.2379 107.101C56.9395 107.562 82.4798 111.375 82.4798 111.375C82.4798 111.375 84.0467 111.537 84.0467 113.646C84.0467 115.573 84.0467 134.073 84.0467 136.869L84.4976 136.801C84.6041 136.926 84.8149 136.854 84.8127 136.693C84.7801 133.459 84.5889 115.13 84.5889 113.209Z" fill="url(#paint26_linear_2037_576477)"/>
<path d="M82.4832 111.375C82.4832 111.375 56.944 107.562 52.2412 107.101C50.3995 106.92 49.2368 107.248 48.5034 107.713C47.8721 108.36 47.8047 109.052 47.8047 109.052V137.576L60.897 140.387L84.0511 135.854C84.0511 133.059 84.0511 115.574 84.0511 113.646C84.0501 111.538 82.4832 111.375 82.4832 111.375Z" fill="url(#paint27_linear_2037_576477)"/>
<path d="M12.7766 106.65C12.7766 106.65 33.5913 105.616 37.1173 105.616C38.1311 105.616 38.858 105.877 39.3806 106.25C38.8536 105.68 38.0115 105.219 36.6652 105.219C33.1382 105.219 12.3245 106.253 12.3245 106.253C12.3245 106.253 9.76562 106.131 9.76562 108.078C9.76562 110.024 9.76562 141.18 9.76562 141.18L10.2166 141.173C10.2166 137.881 10.2166 110.277 10.2166 108.474C10.2176 106.529 12.7766 106.65 12.7766 106.65Z" fill="url(#paint28_linear_2037_576477)"/>
<path d="M40.2619 108.384C40.2619 108.384 40.2347 107.175 39.3817 106.251C38.8591 105.878 38.1311 105.617 37.1184 105.617C33.5913 105.617 12.7777 106.651 12.7777 106.651C12.7777 106.651 10.2188 106.53 10.2188 108.476C10.2188 110.279 10.2188 137.882 10.2188 141.175L40.263 139.921C40.1923 139.739 40.2619 108.384 40.2619 108.384Z" fill="url(#paint29_linear_2037_576477)"/>
<path d="M67.1172 109.121V140.048L67.8506 140.008V109.227L67.1172 109.121Z" fill="#00AEEF"/>
<path d="M23.4219 106.198V140.197H24.1977V106.152L23.4219 106.198Z" fill="#00AEEF"/>
<path d="M40.2319 122.367C39.8516 122.376 39.4942 122.386 39.2095 122.386C35.5031 122.386 13.6268 123.023 13.6268 123.023C13.6268 123.023 10.9375 122.901 10.9375 124.847C10.9375 125.681 10.9375 136.25 10.9375 142.045L40.2569 140.802C40.2222 140.71 40.2233 129.232 40.2319 122.367Z" fill="url(#paint30_linear_2037_576477)"/>
<path d="M60.8892 141.269L83.4653 140.039C83.4653 136.123 83.4653 128.248 83.4653 127.448C83.4653 125.34 81.8984 125.177 81.8984 125.177C81.8984 125.177 56.3592 122.953 51.6564 122.492C50.722 122.401 49.1823 122.269 47.7969 122.223V140.537L60.8892 141.269Z" fill="url(#paint31_linear_2037_576477)"/>
<path opacity="0.23" d="M76.0531 100.902L83.9776 102.585C84.1939 102.63 84.346 102.8 84.346 102.996V104.271C84.346 104.54 84.0656 104.74 83.7668 104.685L75.8423 103.22C75.6196 103.179 75.4609 103.007 75.4609 102.806V101.313C75.4599 101.04 75.75 100.839 76.0531 100.902Z" fill="#398EDD"/>
<path opacity="0.23" d="M46.85 95.6332L54.7745 97.3155C54.9907 97.3612 55.1429 97.5308 55.1429 97.7264V99.0019C55.1429 99.2703 54.8625 99.4711 54.5637 99.416L46.6392 97.9511C46.4165 97.9095 46.2578 97.7379 46.2578 97.5371V96.0441C46.2557 95.7705 46.5469 95.5687 46.85 95.6332Z" fill="#398EDD"/>
<path d="M23.4219 106.996V141.269L24.1977 140.958V106.152L23.4219 106.996Z" fill="url(#paint32_linear_2037_576477)"/>
<path opacity="0.2" d="M23.4252 108.031L10.2188 120.229C10.2188 121.869 10.2188 123.549 10.2188 125.177L23.4252 112.776V108.031Z" fill="url(#paint33_linear_2037_576477)"/>
<path opacity="0.2" d="M23.4252 118.371L10.2188 130.608C10.2188 131.188 10.2188 131.74 10.2188 132.254L23.4252 119.894V118.371Z" fill="url(#paint34_linear_2037_576477)"/>
<path opacity="0.2" d="M39.3771 106.258C39.2359 106.158 39.0805 106.066 38.9077 105.984L24.1953 119.332V127.098C24.1953 127.098 36.4097 116.142 40.2475 112.626C40.2529 110.084 40.2573 108.391 40.2573 108.391C40.2573 108.391 40.2301 107.182 39.3771 106.258Z" fill="url(#paint35_linear_2037_576477)"/>
<path opacity="0.2" d="M24.1953 133.99L40.2345 117.641L40.2377 117.345C40.2388 116.843 40.2399 116.351 40.2399 115.871L24.1953 130.812V133.99Z" fill="url(#paint36_linear_2037_576477)"/>
<path d="M67.1172 109.121V138.433L67.8506 138.395V109.221L67.1172 109.121Z" fill="url(#paint37_linear_2037_576477)"/>
<path opacity="0.2" d="M67.1232 109.131L62.4356 108.461L47.8047 119.668V126.361L67.1232 110.178V109.131Z" fill="url(#paint38_linear_2037_576477)"/>
<path opacity="0.2" d="M67.1232 118.125L47.8047 134.77V137.179L49.5161 137.097L67.1232 120.578V118.125Z" fill="url(#paint39_linear_2037_576477)"/>
<path opacity="0.2" d="M67.8516 125.112L82.4781 111.383L78.1807 110.746L67.8516 119.829V125.112Z" fill="url(#paint40_linear_2037_576477)"/>
<path opacity="0.2" d="M67.8516 131.146L84.045 115.887C84.045 115.293 84.045 114.788 84.045 114.395L67.8516 129.522V131.146Z" fill="url(#paint41_linear_2037_576477)"/>
<path opacity="0.2" d="M67.8516 136.107L76.5486 135.495L84.0461 127.126C84.0461 124.388 84.0461 121.388 84.0461 118.898L67.8516 134.936V136.107Z" fill="url(#paint42_linear_2037_576477)"/>
<path d="M41.4453 83.268V71.7937C41.4453 71.0311 43.0839 70.4038 43.8293 70.6597L85.1664 85.2696C85.5826 85.4132 85.8575 85.8044 85.852 86.2476L86.8039 94.9794C86.7963 95.6827 85.5576 96.7835 84.4134 96.3787L42.2505 84.3083C41.7724 84.171 41.4453 83.7486 41.4453 83.268Z" fill="url(#paint43_linear_2037_576477)"/>
<path opacity="0.23" d="M41.4453 83.268V71.7937C41.4453 71.0311 43.0839 70.4038 43.8293 70.6597L85.1664 85.2696C85.5826 85.4132 85.8575 85.8044 85.852 86.2476L86.8039 94.9794C86.7963 95.6827 85.5576 96.7835 84.4134 96.3787L42.2505 84.3083C41.7724 84.171 41.4453 83.7486 41.4453 83.268Z" fill="#9EE1F1"/>
<path d="M42.5859 82.7007L42.5881 71.8601C42.5881 71.0985 43.3715 70.5669 44.1148 70.8228L86.2157 85.3246C86.6319 85.4681 86.9046 85.8583 86.9003 86.3015L86.8308 94.7743C86.8221 95.4765 86.1353 95.9936 85.4627 95.8011L43.39 83.7401C42.9119 83.6038 42.5859 83.1814 42.5859 82.7007Z" fill="#19549D"/>
<path d="M42.5859 82.7007L42.5881 71.8601C42.5881 71.0985 43.3715 70.5669 44.1148 70.8228L86.2157 85.3246C86.6319 85.4681 86.9046 85.8583 86.9003 86.3015L86.8308 94.7743C86.8221 95.4765 86.1353 95.9936 85.4627 95.8011L43.39 83.7401C42.9119 83.6038 42.5859 83.1814 42.5859 82.7007Z" fill="url(#paint44_linear_2037_576477)"/>
<path d="M45.3761 76.6875L46.7822 77.1546L46.7572 81.982L49.3074 82.7466L49.3042 83.9659L45.3359 82.808L45.3761 76.6875ZM49.7258 81.1028C49.7268 80.6263 49.8094 80.2216 49.9735 79.8887C50.1365 79.5568 50.3636 79.303 50.6526 79.1282C50.9406 78.9545 51.2807 78.8608 51.6718 78.8473C52.0608 78.8338 52.4835 78.9035 52.9388 79.0554C53.3919 79.2062 53.8059 79.4154 54.184 79.6817C54.56 79.947 54.8838 80.2539 55.1554 80.6045C55.426 80.9541 55.6379 81.338 55.7889 81.7562C55.94 82.1744 56.0171 82.6114 56.0193 83.0681C56.0215 83.5248 55.9476 83.916 55.7998 84.2427C55.6509 84.5694 55.4412 84.8243 55.1707 85.0074C54.899 85.1905 54.5752 85.2976 54.1982 85.3299C53.8189 85.3611 53.4017 85.3122 52.9464 85.179C52.4879 85.0458 52.063 84.8503 51.6718 84.5912C51.2785 84.3311 50.9373 84.0232 50.6483 83.6663C50.3582 83.3084 50.1321 82.911 49.9702 82.4751C49.8051 82.0371 49.7247 81.5804 49.7258 81.1028ZM51.1068 81.5346C51.1068 81.8124 51.1503 82.0798 51.2372 82.3378C51.3241 82.5947 51.4491 82.833 51.611 83.0515C51.7729 83.2699 51.9674 83.4603 52.1923 83.6216C52.4172 83.7828 52.6672 83.9046 52.9431 83.9868C53.217 84.0689 53.4647 84.096 53.6853 84.0689C53.9048 84.0419 54.0928 83.9691 54.2492 83.8494C54.4046 83.7308 54.5241 83.5716 54.6067 83.3709C54.6893 83.1711 54.7295 82.936 54.7295 82.6644C54.7284 82.3991 54.686 82.1391 54.6024 81.8852C54.5187 81.6313 54.3992 81.3962 54.2427 81.1809C54.0862 80.9655 53.8983 80.7751 53.6788 80.6118C53.4582 80.4474 53.2115 80.3215 52.9388 80.232C52.6639 80.1426 52.4151 80.1082 52.1912 80.1291C51.9663 80.1499 51.7729 80.2185 51.6121 80.334C51.4502 80.4505 51.3252 80.6107 51.2383 80.8157C51.1503 81.0238 51.1068 81.262 51.1068 81.5346ZM56.8342 80.4973L58.4619 81.0383L60.7416 85.617L60.7568 85.6212L60.722 81.7905L61.8575 82.1682L61.9129 87.6457L60.4167 87.2088L58.061 82.5167L58.0458 82.5115L58.0708 86.5242L56.8625 86.1715L56.8342 80.4973ZM67.3676 88.8661C67.0623 88.9556 66.7418 88.9909 66.406 88.9722C66.0681 88.9535 65.7204 88.8931 65.3629 88.7891C64.9804 88.6778 64.6262 88.5092 64.298 88.2814C63.9688 88.0525 63.683 87.7789 63.4396 87.4595C63.1951 87.1391 63.0039 86.7812 62.8637 86.3859C62.7235 85.9905 62.6518 85.5744 62.6475 85.1374C62.6431 84.7015 62.7062 84.329 62.8376 84.019C62.9691 83.71 63.1538 83.4718 63.3907 83.3043C63.6276 83.1368 63.9079 83.0421 64.2317 83.0182C64.5544 82.9953 64.9054 83.0473 65.2857 83.1742C65.6726 83.3032 66.0279 83.4728 66.3517 83.6819C66.6733 83.89 66.9558 84.1574 67.2003 84.483L66.4777 85.1364C66.331 84.9262 66.1669 84.7493 65.9855 84.6058C65.8029 84.4622 65.5748 84.3457 65.302 84.2562C65.0727 84.1813 64.8652 84.1574 64.6805 84.1823C64.4947 84.2073 64.335 84.2749 64.2024 84.3863C64.0687 84.4976 63.9677 84.6474 63.8981 84.8378C63.8286 85.0282 63.7949 85.2477 63.7982 85.4974C63.8014 85.7523 63.8406 85.9957 63.9155 86.2298C63.9905 86.4628 64.097 86.6782 64.2339 86.8748C64.3708 87.0704 64.5338 87.24 64.7229 87.3825C64.9109 87.5251 65.1206 87.6301 65.3498 87.6988C65.5834 87.7685 65.7834 87.7997 65.9507 87.7924C66.1181 87.7851 66.2506 87.7664 66.3484 87.7363L66.3354 86.8727L65.4704 86.6064L65.4552 85.5203L67.3252 86.1112L67.3676 88.8661ZM71.1826 86.5835C71.0838 86.4181 70.9642 86.2766 70.8219 86.1591C70.6796 86.0415 70.5166 85.952 70.3308 85.8917C70.145 85.8313 69.9722 85.8157 69.8146 85.8469C69.656 85.8782 69.5191 85.9479 69.4039 86.0581C69.2887 86.1684 69.1985 86.3161 69.1355 86.4992C69.0725 86.6834 69.0431 86.8956 69.0464 87.1349C69.0508 87.3794 69.0877 87.6145 69.1583 87.8382C69.229 88.0619 69.3235 88.2658 69.4419 88.4499C69.5604 88.6341 69.6984 88.7912 69.857 88.9212C70.0146 89.0513 70.1819 89.1418 70.3601 89.1959C70.5633 89.2562 70.7415 89.2614 70.8958 89.2115C71.049 89.1616 71.1739 89.0648 71.2707 88.9212L72.0943 89.8649C71.915 90.1125 71.6825 90.2664 71.3989 90.3268C71.1131 90.3882 70.8154 90.3736 70.5079 90.2841C70.1558 90.1811 69.8277 90.023 69.5245 89.8076C69.2203 89.5912 68.9551 89.3311 68.7291 89.0274C68.5031 88.7225 68.3238 88.3802 68.1934 88.0015C68.063 87.6229 67.9935 87.2233 67.987 86.8041C67.9805 86.3848 68.037 86.0259 68.1554 85.7263C68.2738 85.4277 68.4434 85.1957 68.6607 85.0313C68.8769 84.8669 69.1355 84.7722 69.4332 84.7452C69.7299 84.7181 70.0537 84.7639 70.4046 84.8815C70.5307 84.9231 70.6622 84.9803 70.7991 85.0521C70.936 85.1239 71.0696 85.2102 71.2022 85.3111C71.3348 85.4121 71.4608 85.5307 71.5836 85.6659C71.7053 85.8012 71.815 85.9531 71.9128 86.1226L71.1826 86.5835ZM72.5289 85.7169L73.4753 86.0311L73.5166 87.8975L75.316 88.4687L75.2726 86.6293L76.1777 86.93L76.2994 91.8436L75.391 91.5783L75.3399 89.4331L73.5395 88.8755L73.5873 91.0519L72.6376 90.7752L72.5289 85.7169ZM78.3074 87.6385L79.0191 87.8757L80.8229 93.1639L79.8732 92.8871L79.5124 91.7729L77.9901 91.3151L77.6848 92.2483L76.7058 91.9622L78.3074 87.6385ZM78.9985 87.5209L78.6377 86.8769L78.3085 87.2889L77.5544 87.0361L78.1933 86.2829L79.0919 86.5918L79.7504 87.7727L78.9985 87.5209ZM78.6769 89.1449L78.24 90.4932L79.1973 90.7877L78.6769 89.1449ZM84.2304 92.3971C84.2391 92.6697 84.2152 92.9121 84.1598 93.1233C84.1033 93.3345 84.0153 93.5062 83.8936 93.6383C83.7719 93.7715 83.6176 93.8578 83.4307 93.8984C83.2427 93.939 83.0232 93.9233 82.7722 93.8505C82.5169 93.7767 82.2898 93.6622 82.092 93.5072C81.8932 93.3522 81.7258 93.1691 81.5889 92.9568C81.452 92.7446 81.3455 92.5095 81.2716 92.2535C81.1977 91.9976 81.1564 91.7292 81.1478 91.4483L81.0619 88.554L81.8823 88.8266L81.9681 91.6616C81.9725 91.8072 81.9953 91.9477 82.0355 92.0829C82.0757 92.2182 82.13 92.3409 82.1996 92.4512C82.268 92.5615 82.3495 92.6562 82.443 92.7342C82.5364 92.8122 82.6364 92.8674 82.7429 92.8996C82.8494 92.9319 82.9461 92.936 83.0341 92.9121C83.121 92.8882 83.196 92.8414 83.2579 92.7717C83.3198 92.702 83.3666 92.6104 83.3981 92.4991C83.4296 92.3878 83.4437 92.2598 83.4394 92.1162L83.3503 89.3166L84.1381 89.5788L84.2304 92.3971Z" fill="white"/>
<path d="M61.3164 80.2475L60.8198 80.0852L60.0212 78.6755L60.0798 79.8428L59.5735 79.6763L59.4844 77.8047L59.9853 77.9743L60.7785 79.3746L60.7144 78.2208L61.2066 78.3873L61.3164 80.2475Z" fill="white"/>
<path d="M63.338 80.9079L62.8534 80.7488L62.8013 79.9716L62.0809 79.7323L62.1298 80.5116L61.6354 80.3493L61.5234 78.4922L62.0124 78.6576L62.058 79.3879L62.7763 79.6283L62.7274 78.9L63.2066 79.0623L63.338 80.9079Z" fill="white"/>
<path d="M64.747 81.0344L64.0907 80.818L64.0016 81.127L63.4844 80.9574L64.0798 79.3594L64.5264 79.5103L65.4011 81.5848L64.8904 81.4173L64.747 81.0344ZM64.5177 79.4156L64.1472 79.2908L63.7354 78.7695L64.2167 78.9339L64.5177 79.4156ZM64.1798 80.5122L64.6057 80.6536L64.3428 79.9462L64.1798 80.5122Z" fill="white"/>
<path d="M67.5227 80.8497L66.9511 80.6572L67.0891 82.1398L66.623 81.9868L66.4882 80.5012L65.92 80.3097L65.8906 79.9727L67.489 80.5136L67.5227 80.8497Z" fill="white"/>
<path d="M69.4367 82.9086L68.9869 82.7608L68.9075 82.0024L68.2393 81.7808L68.3153 82.5413L67.8568 82.3905L67.6797 80.5781L68.1339 80.7321L68.2056 81.4458L68.8728 81.6684L68.7989 80.9568L69.2444 81.1077L69.4367 82.9086Z" fill="white"/>
<path d="M70.9653 81.6892L71.1022 82.8555C71.1175 82.9887 71.1023 83.0948 71.0566 83.1728C71.0099 83.2519 70.936 83.2987 70.8328 83.3143C70.7296 83.3299 70.6046 83.3133 70.4557 83.2644C70.2297 83.1905 70.0461 83.075 69.9027 82.9169C69.7592 82.7598 69.6766 82.5808 69.6517 82.3811L69.5234 81.1992L69.97 81.3501L70.1026 82.5382C70.1297 82.7369 70.2352 82.8669 70.4177 82.9273C70.5101 82.9574 70.5763 82.9554 70.6176 82.9221C70.6589 82.8877 70.673 82.816 70.6611 82.7046L70.5274 81.5394L70.9653 81.6892Z" fill="white"/>
<path d="M72.8669 83.2145C72.8886 83.3882 72.8767 83.5307 72.8288 83.6431C72.781 83.7565 72.7017 83.8293 72.592 83.8626C72.4811 83.8959 72.3486 83.8876 72.1943 83.8376C72.04 83.7867 71.8987 83.7065 71.7705 83.5973C71.6423 83.487 71.5369 83.3559 71.4532 83.203C71.3706 83.0501 71.3174 82.8888 71.2946 82.7182L71.2826 82.6173C71.262 82.4425 71.2761 82.3 71.325 82.1886C71.3739 82.0773 71.4554 82.0066 71.5673 81.9754C71.6792 81.9442 71.8118 81.9546 71.9661 82.0066C72.1182 82.0576 72.2573 82.1387 72.3844 82.25C72.5116 82.3613 72.617 82.4924 72.6985 82.6464C72.781 82.7993 72.8332 82.9616 72.856 83.1323L72.8669 83.2145ZM71.8183 81.6445L72.0215 81.7132L72.3975 82.0919L72.1291 82.0014L71.9357 81.8016L71.7759 81.8817L71.5065 81.7902L71.8183 81.6445ZM72.4192 82.9939C72.3975 82.817 72.3507 82.6735 72.2801 82.5632C72.2095 82.4519 72.1182 82.378 72.0074 82.3405C71.7901 82.2677 71.6944 82.3894 71.7216 82.7078L71.7357 82.8389C71.7575 83.0137 71.8031 83.1583 71.8726 83.2717C71.9433 83.3851 72.0367 83.4621 72.1519 83.4995C72.2616 83.5359 72.341 83.5172 72.3888 83.4444C72.4366 83.3715 72.4496 83.2488 72.429 83.0761L72.4192 82.9939ZM72.4627 81.6633L72.756 81.7631L72.5061 81.9941L72.291 81.9213L72.4627 81.6633Z" fill="white"/>
<path d="M74.5552 84.0097C74.566 84.1314 74.5487 84.2292 74.5019 84.3041C74.4541 84.379 74.3802 84.4248 74.2781 84.4415C74.176 84.4581 74.0542 84.4435 73.913 84.3967C73.6805 84.3208 73.486 84.1834 73.3317 83.9858C73.1774 83.7881 73.0818 83.5509 73.0459 83.2731L73.035 83.1857C73.0122 83.012 73.0231 82.8705 73.0676 82.7613C73.1111 82.652 73.185 82.5813 73.2893 82.5501C73.3925 82.5178 73.5186 82.5272 73.6663 82.5771C73.8793 82.6489 74.0564 82.7623 74.2009 82.9173C74.3444 83.0723 74.4389 83.2513 74.4835 83.4541L74.0629 83.3137C74.0456 83.2055 74.0075 83.1202 73.951 83.0557C73.8945 82.9922 73.8141 82.9433 73.7098 82.9079C73.6044 82.8726 73.5327 82.8861 73.4936 82.9485C73.4545 83.0109 73.4458 83.1285 73.4664 83.3012L73.4827 83.4261C73.5077 83.6154 73.549 83.759 73.6077 83.8557C73.6663 83.9525 73.7533 84.0201 73.8684 84.0586C73.9662 84.0908 74.0379 84.0919 74.0836 84.0628C74.1292 84.0336 74.1466 83.9691 74.1357 83.8692L74.5552 84.0097Z" fill="white"/>
<path d="M46.4833 72.9618C46.2378 72.8806 45.9748 72.9587 45.8303 73.1366C45.827 73.1397 45.8238 73.1449 45.8205 73.149L45.7934 73.1886L45.0469 74.3049L45.826 74.5608C46.0585 74.6378 46.3051 74.5681 46.4475 74.4048L46.5181 74.2987L47.2429 73.2125L46.4833 72.9618Z" fill="#0037C1" stroke="white" stroke-width="0.160656" stroke-miterlimit="10"/>
<path d="M48.1574 73.0594C47.9032 72.9761 47.6326 73.0604 47.4903 73.2518C47.4794 73.2664 47.4696 73.281 47.4609 73.2955L46.2266 75.1453L46.9872 75.395C47.248 75.4803 47.525 75.3898 47.663 75.19L48.918 73.3101L48.1574 73.0594Z" fill="#E2783A" stroke="white" stroke-width="0.160656" stroke-miterlimit="10"/>
<path d="M49.336 73.8992C49.098 73.8211 48.8459 73.8908 48.6982 74.0552C48.6906 74.0646 48.6612 74.0989 48.6612 74.0989L47.8984 75.2402L48.6591 75.4899C48.9198 75.5752 49.198 75.4836 49.3371 75.2828L50.0944 74.1478L49.336 73.8992Z" fill="#6DB357" stroke="white" stroke-width="0.160656" stroke-miterlimit="10"/>
<path opacity="0.7" d="M134.432 79.3479C134.699 79.09 134.845 78.7945 134.856 78.4918C134.866 78.1891 134.741 77.8901 134.492 77.6259C134.244 77.3616 133.881 77.1416 133.442 76.9885C133.002 76.8354 132.502 76.7548 131.993 76.755H131.899C131.697 76.1707 131.181 75.6414 130.428 75.2472C129.675 74.853 128.726 74.6154 127.726 74.5703C126.726 74.5253 125.728 74.6752 124.884 74.9975C124.039 75.3197 123.395 75.7968 123.047 76.3563C121.94 76.4323 120.918 76.7476 120.176 77.2424C119.434 77.7371 119.024 78.3767 119.023 79.0396C119.025 79.143 119.035 79.2464 119.055 79.3492L134.432 79.3479Z" fill="url(#paint45_linear_2037_576477)"/>
</g>
<mask id="mask2_2037_576477" style="mask-type:alpha" maskUnits="userSpaceOnUse" x="200" y="64" width="160" height="108">
<rect x="200.555" y="64.0781" width="158.854" height="107.884" fill="url(#paint46_linear_2037_576477)"/>
</mask>
<g mask="url(#mask2_2037_576477)">
<path d="M305.139 141.906L293.18 142.995C292.179 142.995 291.367 143.806 291.367 144.808V177.094H306.17H325.062V148.607C325.062 147.814 324.547 147.113 323.791 146.877L307.154 142.214C306.502 142.01 305.823 141.906 305.139 141.906Z" fill="url(#paint47_linear_2037_576477)"/>
<path d="M305.291 153.656L299.219 152.295C298.237 152.075 297.312 152.859 297.312 153.911V177.593H306.54V155.272C306.54 154.492 306.019 153.818 305.291 153.656Z" fill="url(#paint48_linear_2037_576477)"/>
<path d="M306.981 154.834C306.981 154.055 306.437 153.381 305.675 153.218L299.31 151.857C298.282 151.638 297.312 152.422 297.312 153.473V153.907C297.312 152.855 298.237 152.071 299.219 152.291L305.291 153.651C306.019 153.814 306.538 154.488 306.538 155.267V177.589H306.981V154.834Z" fill="url(#paint49_linear_2037_576477)"/>
<path d="M305.291 153.656L299.219 152.295C298.237 152.075 297.312 152.859 297.312 153.911V161.496V177.592H306.54V156.92V155.272C306.54 154.492 306.019 153.818 305.291 153.656Z" fill="url(#paint50_linear_2037_576477)"/>
<path opacity="0.25" d="M300.413 160.264L306.54 156.918V161.937L297.312 167.056V161.987L300.413 160.264Z" fill="url(#paint51_linear_2037_576477)"/>
<path opacity="0.25" d="M297.312 171.165L306.54 166.082V168.148L297.312 173.499V171.165Z" fill="url(#paint52_linear_2037_576477)"/>
<g opacity="0.5">
<path d="M248.822 87.4453H244.5L244.693 65.5946L248.822 63.875V87.4453Z" fill="url(#paint53_linear_2037_576477)"/>
<path d="M256.889 88.8929H248.594V63.875L256.889 66.7236V88.8929Z" fill="url(#paint54_linear_2037_576477)"/>
</g>
<path d="M222.259 116.033H213.352L213.75 70.9937L222.259 67.4492V116.033Z" fill="url(#paint55_linear_2037_576477)"/>
<path d="M238.887 119.017H221.789V67.4492L238.887 73.3208V119.017Z" fill="url(#paint56_linear_2037_576477)"/>
<line x1="222.124" y1="72.8124" x2="238.973" y2="78.4286" stroke="#B5D7F7" stroke-width="0.535519"/>
<line x1="222.124" y1="77.9179" x2="238.973" y2="83.5341" stroke="#B5D7F7" stroke-width="0.535519"/>
<line x1="222.124" y1="83.0233" x2="238.973" y2="88.6396" stroke="#B5D7F7" stroke-width="0.535519"/>
<path d="M215.648 74.0839V88.1245L219.988 88.8904V72.2969L215.648 74.0839Z" fill="url(#paint57_linear_2037_576477)"/>
<path d="M207.977 132.019H200.586V83.137L207.977 80.7266V132.019Z" fill="url(#paint58_linear_2037_576477)"/>
<path d="M207.984 80.7266L225.611 85.9224V131.63H207.984V80.7266Z" fill="url(#paint59_linear_2037_576477)"/>
<path d="M276.299 119.805H269.508L269.811 85.4679L276.299 82.7656V119.805Z" fill="url(#paint60_linear_2037_576477)"/>
<path d="M288.973 122.079H275.938V82.7656L288.973 87.2419V122.079Z" fill="url(#paint61_linear_2037_576477)"/>
<path d="M300.384 126.25H296.062L296.256 104.399L300.384 102.68V126.25Z" fill="url(#paint62_linear_2037_576477)"/>
<path d="M308.451 127.698H300.156V102.68L308.451 105.528V127.698Z" fill="url(#paint63_linear_2037_576477)"/>
<path d="M258.97 123.512H253.688V88.5744L258.97 86.8516V123.512Z" fill="url(#paint64_linear_2037_576477)"/>
<path d="M258.969 86.8516L271.567 90.5652V123.234H258.969V86.8516Z" fill="url(#paint65_linear_2037_576477)"/>
<path d="M288.744 130.391L281.754 130.948C281.168 130.948 280.695 131.422 280.695 132.007V144.597H289.347H300.389V134.624C300.389 134.161 300.088 133.752 299.647 133.614L289.922 130.57C289.539 130.452 289.143 130.391 288.744 130.391Z" fill="url(#paint66_linear_2037_576477)"/>
<path d="M295.467 142.402L283.508 143.491C282.508 143.491 281.695 144.302 281.695 145.304V177.59H296.497H315.39V149.103C315.39 148.31 314.876 147.609 314.119 147.373L295.467 142.402Z" fill="url(#paint67_linear_2037_576477)"/>
<path d="M295.468 142.402V177.59L281.414 179.906L285.87 143.276L295.468 142.402Z" fill="url(#paint68_linear_2037_576477)"/>
</g>
<ellipse cx="157.849" cy="183.633" rx="177.162" ry="61.3456" transform="rotate(-0.554191 157.849 183.633)" fill="url(#paint69_linear_2037_576477)"/>
<path opacity="0.7" d="M81.3929 42.0342C81.3289 41.5374 81.1207 41.0707 80.7944 40.6924C80.4682 40.3142 80.0384 40.0412 79.5587 39.9076C79.0791 39.774 78.5709 39.7858 78.0979 39.9415C77.6249 40.0972 77.208 40.3898 76.8995 40.7828C76.7416 40.2452 76.4468 39.7585 76.0443 39.3711C75.6418 38.9837 75.1456 38.7089 74.605 38.5743C74.0644 38.4396 73.4982 38.4496 72.9626 38.6033C72.4271 38.757 71.9408 39.0491 71.552 39.4505C71.166 38.5236 70.4732 37.7598 69.5913 37.2888C68.7093 36.8178 67.6926 36.6686 66.7137 36.8665C65.7349 37.0644 64.8543 37.5973 64.2215 38.3747C63.5886 39.152 63.2426 40.1259 63.2422 41.1309C63.2426 41.4372 63.2744 41.7426 63.3371 42.0423L81.3929 42.0342Z" fill="url(#paint70_linear_2037_576477)"/>
<path opacity="0.5" d="M308.508 54.0703C308.401 53.2359 308.05 52.4514 307.501 51.8142C306.954 51.1771 306.23 50.718 305.42 50.4956C304.614 50.2688 303.758 50.2885 302.964 50.5528C302.167 50.8137 301.465 51.3043 300.946 51.9632C300.682 51.0612 300.187 50.2441 299.511 49.5907C298.835 48.9407 297.999 48.4787 297.089 48.2504C296.179 48.0245 295.226 48.0427 294.325 48.3021C293.423 48.5595 292.604 49.0497 291.951 49.7234C291.304 48.1675 290.138 46.8834 288.651 46.0894C287.17 45.294 285.458 45.0405 283.809 45.3729C282.161 45.7102 280.68 46.6058 279.617 47.9081C278.55 49.2189 277.968 50.8561 277.969 52.5456C277.969 53.0609 278.022 53.5747 278.128 54.0792L308.508 54.0703Z" fill="url(#paint71_linear_2037_576477)"/>
<path opacity="0.7" d="M231.625 58.5047C231.816 58.3205 231.92 58.1093 231.928 57.8931C231.936 57.6768 231.846 57.4633 231.668 57.2745C231.491 57.0857 231.232 56.9285 230.918 56.8191C230.604 56.7097 230.247 56.6521 229.883 56.6523H229.816C229.672 56.2349 229.303 55.8567 228.765 55.5751C228.227 55.2935 227.549 55.1237 226.834 55.0915C226.12 55.0594 225.407 55.1665 224.804 55.3967C224.201 55.6269 223.74 55.9677 223.492 56.3675C222.701 56.4217 221.97 56.647 221.44 57.0005C220.91 57.3539 220.617 57.8109 220.617 58.2844C220.618 58.3583 220.626 58.4322 220.64 58.5056L231.625 58.5047Z" fill="url(#paint72_linear_2037_576477)"/>
</g>
<path d="M188 132C197.945 132 206 123.945 206 114C206 104.055 197.945 96 188 96C178.055 96 170 104.055 170 114C170 123.945 178.055 132 188 132Z" fill="white"/>
<path d="M188 132C197.945 132 206 123.945 206 114C206 104.055 197.945 96 188 96C178.055 96 170 104.055 170 114C170 123.945 178.055 132 188 132Z" fill="url(#paint73_linear_2037_576477)"/>
<path opacity="0.6" d="M188.445 121.926C188.666 122.242 188.824 122.604 188.911 122.99C188.997 123.376 189.011 123.779 188.95 124.174C188.89 124.569 188.756 124.949 188.558 125.291C188.36 125.633 188.1 125.931 187.795 126.167C187.184 126.644 186.428 126.847 185.69 126.734C184.952 126.621 184.292 126.2 183.851 125.563C183.433 124.913 183.267 124.111 183.388 123.321C183.509 122.532 183.908 121.816 184.502 121.321C184.802 121.078 185.143 120.901 185.505 120.799C185.867 120.698 186.243 120.675 186.61 120.731C186.978 120.788 187.329 120.922 187.644 121.127C187.96 121.332 188.232 121.604 188.445 121.926ZM187.034 99.4645C187.119 98.91 187.419 98.6723 187.96 98.7553L192.317 99.423C192.884 99.5099 193.073 99.8227 192.962 100.373L189.453 118.108C189.443 118.22 189.412 118.33 189.359 118.429C189.307 118.528 189.236 118.615 189.15 118.682C189.065 118.75 188.967 118.797 188.864 118.821C188.761 118.845 188.654 118.845 188.552 118.821L185.562 118.363C185.455 118.36 185.351 118.332 185.257 118.279C185.163 118.227 185.082 118.152 185.02 118.061C184.958 117.969 184.916 117.863 184.898 117.751C184.88 117.639 184.886 117.523 184.916 117.413L187.034 99.4645Z" fill="#1E5BCF"/>
<path d="M189.435 122.074C189.655 122.391 189.813 122.753 189.9 123.139C189.987 123.525 190 123.927 189.939 124.322C189.879 124.717 189.746 125.097 189.547 125.44C189.349 125.782 189.09 126.08 188.785 126.316C188.174 126.792 187.417 126.996 186.679 126.883C185.941 126.77 185.281 126.349 184.841 125.711C184.422 125.062 184.257 124.259 184.378 123.47C184.499 122.68 184.897 121.964 185.491 121.47C185.791 121.227 186.132 121.049 186.494 120.948C186.856 120.847 187.232 120.823 187.6 120.88C187.967 120.936 188.319 121.071 188.634 121.276C188.949 121.481 189.221 121.752 189.435 122.074ZM188.023 99.6129C188.108 99.0585 188.408 98.8208 188.949 98.9037L193.306 99.5714C193.873 99.6584 194.062 99.9711 193.952 100.522L190.442 118.256C190.433 118.369 190.401 118.478 190.349 118.578C190.296 118.677 190.225 118.763 190.14 118.831C190.054 118.898 189.956 118.946 189.853 118.97C189.75 118.994 189.644 118.994 189.541 118.969L186.551 118.511C186.444 118.509 186.34 118.48 186.247 118.428C186.153 118.375 186.072 118.301 186.01 118.209C185.947 118.118 185.906 118.012 185.888 117.9C185.87 117.787 185.876 117.672 185.905 117.561L188.023 99.6129Z" fill="url(#paint74_linear_2037_576477)"/>
<path d="M157.606 116.379C155.227 111.046 165.09 106.161 167.311 105.799C169.097 105.51 170.695 115.207 171.078 121.148C171.461 127.09 171.642 132.966 166.739 132.561C164.071 132.372 161.178 124.34 157.606 116.379Z" fill="url(#paint75_linear_2037_576477)"/>
<path d="M138.173 114.851C137.551 109.062 148.442 107.441 150.662 107.781C152.448 108.056 150.994 117.761 149.519 123.543C148.044 129.325 146.417 134.962 141.912 133.073C139.431 132.039 139.106 123.456 138.173 114.851Z" fill="url(#paint76_linear_2037_576477)"/>
<path d="M167.319 74.0469L170.928 99.2513L177.545 115.932L135.603 116.518L141.648 74.0469H167.319Z" fill="white"/>
<path d="M156.463 116.227L155.516 89.3789L155.848 92.3242L157.649 116.213L156.463 116.227Z" fill="url(#paint77_linear_2037_576477)"/>
<path d="M159.239 84.8681L160.048 85.6585L155.457 88.8109L149.422 86.1515L150.788 84.5942L151.224 84.0968L150.627 83.8129L146.136 81.6791L148.175 74.5743L162.092 75.8354L163.329 81.5942L159.325 84.086L158.784 84.4227L159.239 84.8681Z" fill="white" stroke="#96C0FD"/>
<path d="M161.127 76.5733C161.127 76.5733 156.166 89.2809 155.516 89.3967C154.865 89.5125 149.73 75.2852 149.73 75.2852L161.127 76.5733Z" fill="url(#paint78_linear_2037_576477)"/>
<path d="M173.245 79.1406C175.652 81.0148 177.517 83.4955 178.651 86.3287C179.784 89.1618 180.145 92.2455 179.695 95.2639C178.112 108.102 159.997 103.123 154.089 95.662C148.181 88.2009 160.351 77.9032 174.182 92.1253" fill="url(#paint79_linear_2037_576477)"/>
<path d="M175.635 73.3242C175.635 73.3242 183.618 83.4103 183.524 92.4417C180.592 93.1571 177.524 93.0947 174.622 92.2608L167.955 87.1951L165.511 75.4952L175.635 73.3242Z" fill="white"/>
<path d="M138.451 77.332C136.044 79.2074 134.178 81.6893 133.044 84.5237C131.911 87.3581 131.551 90.4431 132.001 93.4626C133.584 106.293 151.699 101.314 157.607 93.8606C163.515 86.4068 151.891 77.332 138.451 89.815" fill="url(#paint80_linear_2037_576477)"/>
<path d="M135.865 73.3242C135.865 73.3242 127.727 82.5962 127.821 91.0921C130.757 91.7737 133.815 91.7165 136.723 90.9256L143.391 86.1639L145.628 75.4952L135.865 73.3242Z" fill="white"/>
<path d="M121.955 65.2787C127.345 65.2571 131.676 58.1152 131.628 49.3268C131.58 40.5384 127.172 33.4315 121.782 33.4531C116.392 33.4747 112.061 40.6166 112.109 49.405C112.157 58.1934 116.565 65.3003 121.955 65.2787Z" fill="white"/>
<path d="M122.009 33.2566C127.429 33.2106 131.818 40.5358 131.812 49.6224C131.812 50.4184 131.779 51.1997 131.714 51.9665L112.511 45.5799C113.626 38.5244 117.457 33.2933 122.009 33.2566Z" fill="url(#paint81_linear_2037_576477)"/>
<path d="M123.194 65.4277C126.079 65.4171 128.381 58.2841 128.336 49.4957C128.292 40.7073 125.917 33.5914 123.033 33.602C120.148 33.6125 117.846 40.7455 117.89 49.5339C117.935 58.3224 120.31 65.4382 123.194 65.4277Z" fill="#084B59"/>
<path d="M122.243 65.4355C125.128 65.4249 127.43 58.2919 127.385 49.5035C127.341 40.7151 124.966 33.5992 122.081 33.6098C119.197 33.6203 116.895 40.7533 116.939 49.5417C116.984 58.3302 119.359 65.446 122.243 65.4355Z" fill="#071C21"/>
<path d="M188.589 67.306C194.422 67.7024 199.625 60.9158 200.212 52.1477C200.8 43.3795 196.548 35.9502 190.715 35.5538C184.883 35.1573 179.679 41.9439 179.092 50.712C178.505 59.4802 182.757 66.9095 188.589 67.306Z" fill="white"/>
<path d="M190.971 35.3091C185.21 34.9333 180.056 41.7358 179.457 50.5036C179.404 51.2711 179.388 52.0268 179.409 52.7706L200.256 47.7762C199.538 40.9016 195.808 35.6241 190.971 35.3091Z" fill="url(#paint82_linear_2037_576477)"/>
<path d="M187.236 67.3611C190.357 67.5716 193.359 60.6341 193.942 51.8656C194.524 43.0972 192.466 35.8183 189.345 35.6078C186.224 35.3972 183.221 42.3348 182.639 51.1032C182.056 59.8717 184.114 67.1506 187.236 67.3611Z" fill="#084B59"/>
<path d="M188.27 67.4275C191.391 67.638 194.394 60.7005 194.976 51.932C195.559 43.1636 193.5 35.8847 190.379 35.6742C187.258 35.4636 184.255 42.4012 183.673 51.1696C183.09 59.9381 185.149 67.217 188.27 67.4275Z" fill="#071C21"/>
<path d="M143.217 17.5319C122.182 20.1155 119.82 37.1228 119.458 54.3661C119.097 71.6094 134.82 77.1793 157.533 76.6052C180.247 76.0312 189.628 71.4053 191.414 60.5776C193.199 49.7498 193.145 31.9723 183.886 24.3457C175.998 17.8431 158.431 15.6642 143.217 17.5319Z" fill="url(#paint83_linear_2037_576477)"/>
<path d="M163.574 74.0285L147.277 74.2613C134.452 74.4442 123.772 64.1599 123.543 51.4051L123.452 46.2946C123.222 33.5172 133.548 22.9132 146.395 22.7318L162.691 22.4988C175.516 22.3159 186.197 32.601 186.426 45.355L186.517 50.4656C186.747 63.2402 176.423 73.8439 163.574 74.0285Z" fill="url(#paint84_linear_2037_576477)"/>
<path d="M129.605 60.7906C127.52 54.7363 128.317 39.3582 132.421 34.3301C136.524 29.3019 146.609 34.1383 155.371 33.8151C164.134 33.492 168.718 31.7483 172.705 31.8498C176.691 31.9513 182.291 34.2779 182.202 48.0294C182.112 61.7809 179.969 68.2813 161.889 68.9184C144.17 69.5424 131.993 67.7287 129.605 60.7906Z" fill="#EDECED"/>
<path d="M129.351 62.072C127.284 55.9271 128.13 40.2996 132.252 35.1781C136.374 30.0565 146.45 34.9413 155.219 34.5834C163.988 34.2255 168.579 32.4422 172.568 32.5323C176.558 32.6224 182.153 34.9659 182.02 48.9418C181.886 62.9178 179.723 69.5258 161.631 70.2297C143.903 70.9198 131.724 69.1151 129.351 62.072Z" fill="url(#paint85_linear_2037_576477)"/>
<path d="M131.324 59.9262C129.41 54.8353 130.118 41.9166 133.859 37.6985C137.599 33.4805 146.821 37.563 154.819 37.3026C162.818 37.0422 167.005 35.5876 170.647 35.6783C174.289 35.769 179.405 37.7307 179.342 49.2871C179.278 60.8435 177.331 66.3012 160.822 66.8058C144.641 67.3023 133.518 65.7598 131.324 59.9262Z" fill="white"/>
<path d="M181.04 26.8033C183.24 28.3382 184.05 30.3769 184.675 29.5271C185.3 28.6772 184.022 26.7435 181.822 25.2091C179.621 23.6747 177.333 23.1155 176.709 23.9678C176.086 24.82 178.84 25.2668 181.04 26.8033Z" fill="white"/>
<path d="M185.501 32.2781C186.005 32.2942 186.426 31.9034 186.441 31.4053C186.457 30.9072 186.06 30.4904 185.556 30.4744C185.052 30.4583 184.631 30.8491 184.616 31.3472C184.601 31.8453 184.997 32.2621 185.501 32.2781Z" fill="white"/>
<path d="M126.365 65.2546C124.679 63.3159 124.412 61.2283 123.625 61.8772C122.838 62.526 123.568 64.6233 125.252 66.5609C126.936 68.4985 128.943 69.5448 129.731 68.8962C130.519 68.2476 128.052 67.1926 126.365 65.2546Z" fill="white"/>
<path d="M124.014 60.0356C124.151 59.5565 123.868 59.0559 123.383 58.9176C122.898 58.7793 122.394 59.0557 122.257 59.5348C122.121 60.0139 122.403 60.5145 122.888 60.6527C123.373 60.791 123.877 60.5147 124.014 60.0356Z" fill="white"/>
<path d="M170.402 52.6372C170.414 51.6011 171.673 50.7801 173.212 50.8034C174.752 50.8268 175.99 51.6856 175.978 52.7217C175.966 53.7578 174.708 54.5787 173.168 54.5554C171.628 54.5321 170.39 53.6733 170.402 52.6372Z" fill="#F5A1AA"/>
<path d="M134.022 49.8403C134.035 48.8042 135.293 47.9832 136.832 48.0066C138.372 48.0299 139.61 48.8887 139.598 49.9248C139.586 50.9609 138.328 51.7819 136.788 51.7585C135.249 51.7352 134.01 50.8764 134.022 49.8403Z" fill="#F5A1AA"/>
<path d="M141.738 46.7832C141.818 44.4465 143.313 42.6153 145.077 42.6933C146.841 42.7714 148.206 44.7289 148.126 47.0657C148.046 49.4025 146.55 51.2336 144.786 51.1556C143.022 51.0776 141.657 49.12 141.738 46.7832Z" fill="#132348"/>
<path d="M162.391 47.7403C162.471 45.4035 163.966 43.5724 165.73 43.6504C167.494 43.7284 168.859 45.686 168.779 48.0228C168.699 50.3596 167.204 52.1907 165.44 52.1127C163.676 52.0347 162.311 50.0771 162.391 47.7403Z" fill="#132348"/>
<path d="M165.508 50.0722C165.523 49.5663 165.854 49.1684 166.247 49.1835C166.639 49.1986 166.946 49.6209 166.931 50.1269C166.916 50.6328 166.585 51.0307 166.192 51.0156C165.799 51.0006 165.493 50.5782 165.508 50.0722Z" fill="white"/>
<path d="M145.43 48.1074C145.445 47.6014 145.776 47.2035 146.168 47.2186C146.561 47.2337 146.868 47.6561 146.853 48.162C146.837 48.668 146.507 49.0659 146.114 49.0508C145.721 49.0357 145.415 48.6133 145.43 48.1074Z" fill="white"/>
<path d="M159.856 55.735C159.922 55.7381 159.988 55.7562 160.054 55.7892C160.289 55.9149 160.391 56.2183 160.282 56.4617C159.335 58.5451 156.683 60.0643 154.213 59.9458C154.189 59.9446 154.161 59.9433 154.137 59.9422C152.167 59.8227 150.672 58.7115 149.917 56.8199C149.814 56.5613 149.924 56.2731 150.164 56.1802C150.405 56.0823 150.683 56.215 150.781 56.4684C151.546 58.3953 153.034 58.8795 154.151 58.948C154.17 58.9489 154.193 58.9501 154.212 58.951C156.315 59.0518 158.64 57.7409 159.426 56.0028C159.507 55.8227 159.677 55.7264 159.856 55.735Z" fill="#132348"/>
<path d="M162.977 43.0217L169.437 46.8466L170.501 44.0916L165.11 40.042L162.977 43.0217Z" fill="white"/>
<path d="M140.698 45.2856L146.938 42.0826L146.665 39.8371L140.489 41.5961L140.698 45.2856Z" fill="white"/>
<path d="M143.262 51.9596C143.262 51.1728 143.51 50.6014 143.634 50.4141C143.262 54.2077 144.006 55.3318 144.006 56.8774C144.006 58.423 142.766 57.8609 143.014 56.8774C143.262 55.8938 143.262 52.9432 143.262 51.9596Z" fill="#91D5FF"/>
<path d="M144.22 50.4138C144.022 50.189 143.725 50.3201 143.601 50.4138C144.22 50.9757 144.592 51.1162 145.336 51.1162C146.203 51.1162 147.029 50.32 147.318 49.9922L147.194 49.9922C146.823 49.9922 147.071 50.1327 146.575 50.2732C146.079 50.4137 145.831 50.5542 145.336 50.5542C144.84 50.5542 144.468 50.6948 144.22 50.4138Z" fill="#91D5FF"/>
<path d="M168.034 52.7246C168.034 51.9799 167.604 51.5796 167.394 51.4023C168.024 54.9927 166.775 55.916 166.775 57.3788C166.775 58.8415 168.874 58.3096 168.454 57.3788C168.034 56.4479 168.034 53.6554 168.034 52.7246Z" fill="#91D5FF"/>
<path d="M166.896 51.4021C167.094 51.1773 167.392 51.3083 167.516 51.402C166.896 51.9639 166.524 52.1045 165.781 52.1045C164.913 52.1045 164.087 51.3083 163.798 50.9805L163.922 50.9805C164.294 50.9805 164.046 51.121 164.541 51.2615C165.037 51.402 165.285 51.5425 165.781 51.5425C166.276 51.5425 166.648 51.6831 166.896 51.4021Z" fill="#91D5FF"/>
<defs>
<linearGradient id="paint0_linear_2037_576477" x1="86.6938" y1="27.4922" x2="86.6938" y2="135.792" gradientUnits="userSpaceOnUse">
<stop offset="0.440192" stop-color="#D9D9D9"/>
<stop offset="1" stop-color="#D9D9D9" stop-opacity="0"/>
</linearGradient>
<linearGradient id="paint1_linear_2037_576477" x1="89.016" y1="122.993" x2="113.316" y2="122.993" gradientUnits="userSpaceOnUse">
<stop offset="0.1994" stop-color="#A8D5FE"/>
<stop offset="0.3818" stop-color="#D3EAFE"/>
<stop offset="0.5085" stop-color="#CEE7FE"/>
<stop offset="0.6602" stop-color="#BFDEFE"/>
<stop offset="0.8241" stop-color="#A7D0FE"/>
<stop offset="0.9821" stop-color="#89BEFE"/>
</linearGradient>
<linearGradient id="paint2_linear_2037_576477" x1="93.3048" y1="126.905" x2="100.278" y2="126.905" gradientUnits="userSpaceOnUse">
<stop stop-color="#ECF5FE"/>
<stop offset="0.7055" stop-color="#C9E1FE"/>
</linearGradient>
<linearGradient id="paint3_linear_2037_576477" x1="90.9876" y1="121.238" x2="97.4817" y2="125.709" gradientUnits="userSpaceOnUse">
<stop offset="0.5754" stop-color="#718ED1"/>
<stop offset="0.8213" stop-color="#AAD7FE"/>
<stop offset="0.9742" stop-color="#718ED1"/>
</linearGradient>
<linearGradient id="paint4_linear_2037_576477" x1="93.297" y1="126.905" x2="99.9508" y2="126.905" gradientUnits="userSpaceOnUse">
<stop stop-color="#ECF5FE"/>
<stop offset="0.7055" stop-color="#C9E1FE"/>
</linearGradient>
<linearGradient id="paint5_linear_2037_576477" x1="100.511" y1="122.692" x2="93.1921" y2="126.631" gradientUnits="userSpaceOnUse">
<stop offset="0.1994" stop-color="#A8D5FE"/>
<stop offset="0.3818" stop-color="#D3EAFE"/>
<stop offset="0.5085" stop-color="#CEE7FE"/>
<stop offset="0.6602" stop-color="#BFDEFE"/>
<stop offset="0.8241" stop-color="#A7D0FE"/>
<stop offset="0.9821" stop-color="#89BEFE"/>
</linearGradient>
<linearGradient id="paint6_linear_2037_576477" x1="100.063" y1="128.333" x2="93.4357" y2="132.166" gradientUnits="userSpaceOnUse">
<stop offset="0.1994" stop-color="#A8D5FE"/>
<stop offset="0.3818" stop-color="#D3EAFE"/>
<stop offset="0.5085" stop-color="#CEE7FE"/>
<stop offset="0.6602" stop-color="#BFDEFE"/>
<stop offset="0.8241" stop-color="#A7D0FE"/>
<stop offset="0.9821" stop-color="#89BEFE"/>
</linearGradient>
<linearGradient id="paint7_linear_2037_576477" x1="68.6639" y1="54.3936" x2="49.8226" y2="67.0275" gradientUnits="userSpaceOnUse">
<stop offset="0.0180256" stop-color="#C1E1FF"/>
<stop offset="0.9771" stop-color="#E0F0FF"/>
</linearGradient>
<linearGradient id="paint8_linear_2037_576477" x1="54.4899" y1="46.3802" x2="59.5265" y2="66.4297" gradientUnits="userSpaceOnUse">
<stop offset="0.3503" stop-color="#BEDDFA"/>
<stop offset="0.9771" stop-color="#E0F0FF"/>
</linearGradient>
<linearGradient id="paint9_linear_2037_576477" x1="60.4713" y1="57.3562" x2="21.6352" y2="83.3976" gradientUnits="userSpaceOnUse">
<stop offset="0.0180256" stop-color="#C1E1FF"/>
<stop offset="0.9771" stop-color="#E0F0FF"/>
</linearGradient>
<linearGradient id="paint10_linear_2037_576477" x1="31.2465" y1="40.8388" x2="41.6281" y2="82.1653" gradientUnits="userSpaceOnUse">
<stop offset="0.3503" stop-color="#BEDDFA"/>
<stop offset="0.9771" stop-color="#E0F0FF"/>
</linearGradient>
<linearGradient id="paint11_linear_2037_576477" x1="35.9711" y1="60.1094" x2="35.9711" y2="72.0762" gradientUnits="userSpaceOnUse">
<stop stop-color="#C2DFFA"/>
<stop offset="1" stop-color="#C2DFFA" stop-opacity="0"/>
</linearGradient>
<linearGradient id="paint12_linear_2037_576477" x1="17.2219" y1="51.1707" x2="32.6928" y2="108.885" gradientUnits="userSpaceOnUse">
<stop stop-color="#B5D8F9"/>
<stop offset="0.732" stop-color="#E1F1FF"/>
</linearGradient>
<linearGradient id="paint13_linear_2037_576477" x1="55.6219" y1="52.7621" x2="38.3054" y2="100.217" gradientUnits="userSpaceOnUse">
<stop offset="0.368027" stop-color="#BADAF8"/>
<stop offset="0.924183" stop-color="#DBEEFF"/>
</linearGradient>
<linearGradient id="paint14_linear_2037_576477" x1="94.3937" y1="68.2256" x2="64.786" y2="88.0789" gradientUnits="userSpaceOnUse">
<stop offset="0.0180256" stop-color="#C1E1FF"/>
<stop offset="0.9771" stop-color="#E0F0FF"/>
</linearGradient>
<linearGradient id="paint15_linear_2037_576477" x1="72.1202" y1="55.6332" x2="80.035" y2="87.1395" gradientUnits="userSpaceOnUse">
<stop offset="0.3503" stop-color="#BEDDFA"/>
<stop offset="0.9771" stop-color="#E0F0FF"/>
</linearGradient>
<linearGradient id="paint16_linear_2037_576477" x1="105.851" y1="82.3779" x2="87.0101" y2="95.0119" gradientUnits="userSpaceOnUse">
<stop offset="0.0180256" stop-color="#C1E1FF"/>
<stop offset="0.9771" stop-color="#E0F0FF"/>
</linearGradient>
<linearGradient id="paint17_linear_2037_576477" x1="91.6774" y1="74.3646" x2="96.714" y2="94.414" gradientUnits="userSpaceOnUse">
<stop offset="0.3503" stop-color="#BEDDFA"/>
<stop offset="0.9771" stop-color="#E0F0FF"/>
</linearGradient>
<linearGradient id="paint18_linear_2037_576477" x1="57.3287" y1="59.8713" x2="68.3862" y2="101.122" gradientUnits="userSpaceOnUse">
<stop stop-color="#B5D8F9"/>
<stop offset="0.732" stop-color="#E1F1FF"/>
</linearGradient>
<linearGradient id="paint19_linear_2037_576477" x1="84.7787" y1="61.0087" x2="72.4021" y2="94.9265" gradientUnits="userSpaceOnUse">
<stop offset="0.368027" stop-color="#BADAF8"/>
<stop offset="0.924183" stop-color="#DBEEFF"/>
</linearGradient>
<linearGradient id="paint20_linear_2037_576477" x1="81.3349" y1="107.123" x2="95.538" y2="107.123" gradientUnits="userSpaceOnUse">
<stop offset="0.1994" stop-color="#A8CFFE"/>
<stop offset="0.4317" stop-color="#D3EAFE"/>
<stop offset="0.8422" stop-color="#9DCAFE"/>
</linearGradient>
<linearGradient id="paint21_linear_2037_576477" x1="89.7964" y1="123.726" x2="106.883" y2="126.014" gradientUnits="userSpaceOnUse">
<stop offset="0.0995" stop-color="#D3EAFE"/>
<stop offset="0.9138" stop-color="#88BAF0"/>
</linearGradient>
<linearGradient id="paint22_linear_2037_576477" x1="92.3008" y1="124.188" x2="83.3924" y2="124.188" gradientUnits="userSpaceOnUse">
<stop offset="0.1994" stop-color="#A8D0FE"/>
<stop offset="0.8422" stop-color="#84B4E8"/>
</linearGradient>
<linearGradient id="paint23_linear_2037_576477" x1="6.95314" y1="96.2703" x2="86.7062" y2="96.2703" gradientUnits="userSpaceOnUse">
<stop offset="0.1737" stop-color="#DDEFFE"/>
<stop offset="0.4317" stop-color="#FEFEFE"/>
<stop offset="0.8654" stop-color="#AAD1FE"/>
</linearGradient>
<linearGradient id="paint24_linear_2037_576477" x1="6.95422" y1="100.89" x2="86.7073" y2="100.89" gradientUnits="userSpaceOnUse">
<stop offset="0.1737" stop-color="#7BBFFF"/>
<stop offset="0.390625" stop-color="#CFE8FF"/>
<stop offset="0.915" stop-color="#61B2FD"/>
</linearGradient>
<linearGradient id="paint25_linear_2037_576477" x1="6.95314" y1="122.025" x2="86.7062" y2="122.025" gradientUnits="userSpaceOnUse">
<stop offset="0.2459" stop-color="#EBF5FE"/>
<stop offset="0.4489" stop-color="#F3F8FE"/>
<stop offset="0.8387" stop-color="#BFDBFE"/>
</linearGradient>
<linearGradient id="paint26_linear_2037_576477" x1="50.6596" y1="106.785" x2="83.3494" y2="125.301" gradientUnits="userSpaceOnUse">
<stop offset="0.5754" stop-color="#4D75D1"/>
<stop offset="0.8213" stop-color="#AAD7FE"/>
<stop offset="0.9742" stop-color="#4D75D1"/>
</linearGradient>
<linearGradient id="paint27_linear_2037_576477" x1="48.6192" y1="111.75" x2="80.3106" y2="138.108" gradientUnits="userSpaceOnUse">
<stop stop-color="#ECF5FE"/>
<stop offset="0.7055" stop-color="#C9E1FE"/>
</linearGradient>
<linearGradient id="paint28_linear_2037_576477" x1="26.2672" y1="113.373" x2="16.2993" y2="120.591" gradientUnits="userSpaceOnUse">
<stop offset="0.5754" stop-color="#4D75D1"/>
<stop offset="0.8213" stop-color="#AAD7FE"/>
<stop offset="0.9742" stop-color="#4D75D1"/>
</linearGradient>
<linearGradient id="paint29_linear_2037_576477" x1="40.086" y1="107.511" x2="11.2266" y2="142.191" gradientUnits="userSpaceOnUse">
<stop stop-color="#ECF5FE"/>
<stop offset="0.7055" stop-color="#C9E3FE"/>
</linearGradient>
<linearGradient id="paint30_linear_2037_576477" x1="40.3028" y1="130.542" x2="-1.67835" y2="135.185" gradientUnits="userSpaceOnUse">
<stop stop-color="#D3EAFE"/>
<stop offset="0.8306" stop-color="#ADD5FE"/>
</linearGradient>
<linearGradient id="paint31_linear_2037_576477" x1="41.3671" y1="130.757" x2="111.712" y2="137.623" gradientUnits="userSpaceOnUse">
<stop offset="0.0358" stop-color="#D3EAFE"/>
<stop offset="0.2463" stop-color="#CAE5FE"/>
<stop offset="0.5871" stop-color="#B2D8FE"/>
<stop offset="0.6492" stop-color="#ADD5FE"/>
</linearGradient>
<linearGradient id="paint32_linear_2037_576477" x1="23.422" y1="123.71" x2="24.198" y2="123.71" gradientUnits="userSpaceOnUse">
<stop offset="0.5452" stop-color="#98C3FE"/>
<stop offset="0.7105" stop-color="#D3EAFE"/>
<stop offset="0.9073" stop-color="#89B6FE"/>
</linearGradient>
<linearGradient id="paint33_linear_2037_576477" x1="10.2193" y1="116.604" x2="23.4253" y2="116.604" gradientUnits="userSpaceOnUse">
<stop offset="0.012" stop-color="#D6EBFE"/>
<stop offset="0.231" stop-color="#CCE6FF"/>
<stop offset="0.416" stop-color="#E9F4FE"/>
<stop offset="0.6512" stop-color="#D5EAFE"/>
<stop offset="1" stop-color="#ABD5FF"/>
</linearGradient>
<linearGradient id="paint34_linear_2037_576477" x1="10.2193" y1="125.313" x2="23.4253" y2="125.313" gradientUnits="userSpaceOnUse">
<stop offset="0.012" stop-color="#D6EBFE"/>
<stop offset="0.231" stop-color="#CCE6FF"/>
<stop offset="0.416" stop-color="#E9F4FE"/>
<stop offset="0.6512" stop-color="#D5EAFE"/>
<stop offset="1" stop-color="#ABD5FF"/>
</linearGradient>
<linearGradient id="paint35_linear_2037_576477" x1="24.1956" y1="116.541" x2="40.2574" y2="116.541" gradientUnits="userSpaceOnUse">
<stop offset="0.012" stop-color="#D6EBFE"/>
<stop offset="0.231" stop-color="#CCE6FF"/>
<stop offset="0.416" stop-color="#E9F4FE"/>
<stop offset="0.6512" stop-color="#D5EAFE"/>
<stop offset="1" stop-color="#ABD5FF"/>
</linearGradient>
<linearGradient id="paint36_linear_2037_576477" x1="24.1956" y1="124.931" x2="40.241" y2="124.931" gradientUnits="userSpaceOnUse">
<stop offset="0.012" stop-color="#D6EBFE"/>
<stop offset="0.231" stop-color="#CCE6FF"/>
<stop offset="0.416" stop-color="#E9F4FE"/>
<stop offset="0.6512" stop-color="#D5EAFE"/>
<stop offset="1" stop-color="#ABD5FF"/>
</linearGradient>
<linearGradient id="paint37_linear_2037_576477" x1="67.1167" y1="123.777" x2="67.851" y2="123.777" gradientUnits="userSpaceOnUse">
<stop offset="0.5452" stop-color="#98C3FE"/>
<stop offset="0.7105" stop-color="#D3EAFE"/>
<stop offset="0.9073" stop-color="#89B6FE"/>
</linearGradient>
<linearGradient id="paint38_linear_2037_576477" x1="47.8044" y1="117.411" x2="67.1227" y2="117.411" gradientUnits="userSpaceOnUse">
<stop offset="0.012" stop-color="#D6EBFE"/>
<stop offset="0.231" stop-color="#CCE6FF"/>
<stop offset="0.416" stop-color="#E9F4FE"/>
<stop offset="0.6512" stop-color="#D5EAFE"/>
<stop offset="1" stop-color="#ABD5FF"/>
</linearGradient>
<linearGradient id="paint39_linear_2037_576477" x1="47.8044" y1="127.652" x2="67.1227" y2="127.652" gradientUnits="userSpaceOnUse">
<stop offset="0.012" stop-color="#D6EBFE"/>
<stop offset="0.231" stop-color="#CCE6FF"/>
<stop offset="0.416" stop-color="#E9F4FE"/>
<stop offset="0.6512" stop-color="#D5EAFE"/>
<stop offset="1" stop-color="#ABD5FF"/>
</linearGradient>
<linearGradient id="paint40_linear_2037_576477" x1="67.8519" y1="117.929" x2="82.4781" y2="117.929" gradientUnits="userSpaceOnUse">
<stop offset="0.012" stop-color="#D6EBFE"/>
<stop offset="0.231" stop-color="#CCE6FF"/>
<stop offset="0.416" stop-color="#E9F4FE"/>
<stop offset="0.6512" stop-color="#D5EAFE"/>
<stop offset="1" stop-color="#ABD5FF"/>
</linearGradient>
<linearGradient id="paint41_linear_2037_576477" x1="67.8519" y1="122.77" x2="84.0455" y2="122.77" gradientUnits="userSpaceOnUse">
<stop offset="0.012" stop-color="#D6EBFE"/>
<stop offset="0.231" stop-color="#CCE6FF"/>
<stop offset="0.416" stop-color="#E9F4FE"/>
<stop offset="0.6512" stop-color="#D5EAFE"/>
<stop offset="1" stop-color="#ABD5FF"/>
</linearGradient>
<linearGradient id="paint42_linear_2037_576477" x1="67.8519" y1="127.503" x2="84.0455" y2="127.503" gradientUnits="userSpaceOnUse">
<stop offset="0.012" stop-color="#D6EBFE"/>
<stop offset="0.231" stop-color="#CCE6FF"/>
<stop offset="0.416" stop-color="#E9F4FE"/>
<stop offset="0.6512" stop-color="#D5EAFE"/>
<stop offset="1" stop-color="#ABD5FF"/>
</linearGradient>
<linearGradient id="paint43_linear_2037_576477" x1="47.8237" y1="77.7816" x2="66.2341" y2="104.109" gradientUnits="userSpaceOnUse">
<stop stop-color="#1D4298"/>
<stop offset="1" stop-color="#3D95E5"/>
</linearGradient>
<linearGradient id="paint44_linear_2037_576477" x1="64.7431" y1="70.7578" x2="64.7431" y2="95.8417" gradientUnits="userSpaceOnUse">
<stop stop-color="#5F9CF9"/>
<stop offset="1" stop-color="#0050B3"/>
</linearGradient>
<linearGradient id="paint45_linear_2037_576477" x1="124.645" y1="74.5625" x2="122.297" y2="80.9626" gradientUnits="userSpaceOnUse">
<stop stop-color="white"/>
<stop offset="1" stop-color="white" stop-opacity="0"/>
</linearGradient>
<linearGradient id="paint46_linear_2037_576477" x1="279.981" y1="64.0781" x2="279.981" y2="146.33" gradientUnits="userSpaceOnUse">
<stop offset="0.0526068" stop-color="#D9D9D9"/>
<stop offset="1" stop-color="#D9D9D9" stop-opacity="0"/>
</linearGradient>
<linearGradient id="paint47_linear_2037_576477" x1="291.368" y1="159.5" x2="325.062" y2="159.5" gradientUnits="userSpaceOnUse">
<stop offset="0.1994" stop-color="#A8D5FE"/>
<stop offset="0.3818" stop-color="#D3EAFE"/>
<stop offset="0.5085" stop-color="#CEE7FE"/>
<stop offset="0.6602" stop-color="#BFDEFE"/>
<stop offset="0.8241" stop-color="#A7D0FE"/>
<stop offset="0.9821" stop-color="#89BEFE"/>
</linearGradient>
<linearGradient id="paint48_linear_2037_576477" x1="297.313" y1="164.925" x2="306.982" y2="164.925" gradientUnits="userSpaceOnUse">
<stop stop-color="#ECF5FE"/>
<stop offset="0.7055" stop-color="#C9E1FE"/>
</linearGradient>
<linearGradient id="paint49_linear_2037_576477" x1="294.11" y1="157.068" x2="303.115" y2="163.268" gradientUnits="userSpaceOnUse">
<stop offset="0.5754" stop-color="#718ED1"/>
<stop offset="0.8213" stop-color="#AAD7FE"/>
<stop offset="0.9742" stop-color="#718ED1"/>
</linearGradient>
<linearGradient id="paint50_linear_2037_576477" x1="297.313" y1="164.925" x2="306.539" y2="164.925" gradientUnits="userSpaceOnUse">
<stop stop-color="#ECF5FE"/>
<stop offset="0.7055" stop-color="#C9E1FE"/>
</linearGradient>
<linearGradient id="paint51_linear_2037_576477" x1="307.316" y1="159.086" x2="297.167" y2="164.548" gradientUnits="userSpaceOnUse">
<stop offset="0.1994" stop-color="#A8D5FE"/>
<stop offset="0.3818" stop-color="#D3EAFE"/>
<stop offset="0.5085" stop-color="#CEE7FE"/>
<stop offset="0.6602" stop-color="#BFDEFE"/>
<stop offset="0.8241" stop-color="#A7D0FE"/>
<stop offset="0.9821" stop-color="#89BEFE"/>
</linearGradient>
<linearGradient id="paint52_linear_2037_576477" x1="306.694" y1="166.907" x2="297.505" y2="172.221" gradientUnits="userSpaceOnUse">
<stop offset="0.1994" stop-color="#A8D5FE"/>
<stop offset="0.3818" stop-color="#D3EAFE"/>
<stop offset="0.5085" stop-color="#CEE7FE"/>
<stop offset="0.6602" stop-color="#BFDEFE"/>
<stop offset="0.8241" stop-color="#A7D0FE"/>
<stop offset="0.9821" stop-color="#89BEFE"/>
</linearGradient>
<linearGradient id="paint53_linear_2037_576477" x1="263.143" y1="64.3774" x2="237.018" y2="81.896" gradientUnits="userSpaceOnUse">
<stop offset="0.0180256" stop-color="#C1E1FF"/>
<stop offset="0.9771" stop-color="#E0F0FF"/>
</linearGradient>
<linearGradient id="paint54_linear_2037_576477" x1="243.488" y1="53.2658" x2="250.472" y2="81.067" gradientUnits="userSpaceOnUse">
<stop offset="0.3503" stop-color="#BEDDFA"/>
<stop offset="0.9771" stop-color="#E0F0FF"/>
</linearGradient>
<linearGradient id="paint55_linear_2037_576477" x1="251.78" y1="68.4848" x2="197.929" y2="104.595" gradientUnits="userSpaceOnUse">
<stop offset="0.0180256" stop-color="#C1E1FF"/>
<stop offset="0.9771" stop-color="#E0F0FF"/>
</linearGradient>
<linearGradient id="paint56_linear_2037_576477" x1="211.265" y1="45.5813" x2="225.661" y2="102.886" gradientUnits="userSpaceOnUse">
<stop offset="0.3503" stop-color="#BEDDFA"/>
<stop offset="0.9771" stop-color="#E0F0FF"/>
</linearGradient>
<linearGradient id="paint57_linear_2037_576477" x1="217.818" y1="72.2969" x2="217.818" y2="88.8904" gradientUnits="userSpaceOnUse">
<stop stop-color="#C2DFFA"/>
<stop offset="1" stop-color="#C2DFFA" stop-opacity="0"/>
</linearGradient>
<linearGradient id="paint58_linear_2037_576477" x1="191.826" y1="59.9092" x2="213.279" y2="139.937" gradientUnits="userSpaceOnUse">
<stop stop-color="#B5D8F9"/>
<stop offset="0.732" stop-color="#E1F1FF"/>
</linearGradient>
<linearGradient id="paint59_linear_2037_576477" x1="245.083" y1="62.1159" x2="221.072" y2="127.918" gradientUnits="userSpaceOnUse">
<stop offset="0.368027" stop-color="#BADAF8"/>
<stop offset="0.924183" stop-color="#DBEEFF"/>
</linearGradient>
<linearGradient id="paint60_linear_2037_576477" x1="298.805" y1="83.5551" x2="257.75" y2="111.084" gradientUnits="userSpaceOnUse">
<stop offset="0.0180256" stop-color="#C1E1FF"/>
<stop offset="0.9771" stop-color="#E0F0FF"/>
</linearGradient>
<linearGradient id="paint61_linear_2037_576477" x1="267.914" y1="66.0941" x2="278.889" y2="109.782" gradientUnits="userSpaceOnUse">
<stop offset="0.3503" stop-color="#BEDDFA"/>
<stop offset="0.9771" stop-color="#E0F0FF"/>
</linearGradient>
<linearGradient id="paint62_linear_2037_576477" x1="314.706" y1="103.182" x2="288.58" y2="120.701" gradientUnits="userSpaceOnUse">
<stop offset="0.0180256" stop-color="#C1E1FF"/>
<stop offset="0.9771" stop-color="#E0F0FF"/>
</linearGradient>
<linearGradient id="paint63_linear_2037_576477" x1="295.051" y1="92.0705" x2="302.035" y2="119.872" gradientUnits="userSpaceOnUse">
<stop offset="0.3503" stop-color="#BEDDFA"/>
<stop offset="0.9771" stop-color="#E0F0FF"/>
</linearGradient>
<linearGradient id="paint64_linear_2037_576477" x1="247.427" y1="71.9727" x2="262.759" y2="129.171" gradientUnits="userSpaceOnUse">
<stop stop-color="#B5D8F9"/>
<stop offset="0.732" stop-color="#E1F1FF"/>
</linearGradient>
<linearGradient id="paint65_linear_2037_576477" x1="285.485" y1="73.5499" x2="268.323" y2="120.581" gradientUnits="userSpaceOnUse">
<stop offset="0.368027" stop-color="#BADAF8"/>
<stop offset="0.924183" stop-color="#DBEEFF"/>
</linearGradient>
<linearGradient id="paint66_linear_2037_576477" x1="280.694" y1="137.495" x2="300.388" y2="137.495" gradientUnits="userSpaceOnUse">
<stop offset="0.1994" stop-color="#A8CFFE"/>
<stop offset="0.4317" stop-color="#D3EAFE"/>
<stop offset="0.8422" stop-color="#9DCAFE"/>
</linearGradient>
<linearGradient id="paint67_linear_2037_576477" x1="292.441" y1="160.514" x2="316.134" y2="163.688" gradientUnits="userSpaceOnUse">
<stop offset="0.0995" stop-color="#D3EAFE"/>
<stop offset="0.9138" stop-color="#88BAF0"/>
</linearGradient>
<linearGradient id="paint68_linear_2037_576477" x1="295.914" y1="161.155" x2="283.561" y2="161.155" gradientUnits="userSpaceOnUse">
<stop offset="0.1994" stop-color="#A8D0FE"/>
<stop offset="0.8422" stop-color="#84B4E8"/>
</linearGradient>
<linearGradient id="paint69_linear_2037_576477" x1="157.849" y1="122.287" x2="158.197" y2="157.337" gradientUnits="userSpaceOnUse">
<stop stop-color="#ABCCF5"/>
<stop offset="1" stop-color="#ABCCF5" stop-opacity="0"/>
</linearGradient>
<linearGradient id="paint70_linear_2037_576477" x1="69.687" y1="36.7813" x2="67.188" y2="43.8837" gradientUnits="userSpaceOnUse">
<stop stop-color="white"/>
<stop offset="1" stop-color="white" stop-opacity="0"/>
</linearGradient>
<linearGradient id="paint71_linear_2037_576477" x1="295.082" y1="47.4406" x2="290.883" y2="59.3848" gradientUnits="userSpaceOnUse">
<stop stop-color="white"/>
<stop offset="1" stop-color="white" stop-opacity="0"/>
</linearGradient>
<linearGradient id="paint72_linear_2037_576477" x1="224.634" y1="55.0859" x2="222.956" y2="59.6583" gradientUnits="userSpaceOnUse">
<stop stop-color="white"/>
<stop offset="1" stop-color="white" stop-opacity="0"/>
</linearGradient>
<linearGradient id="paint73_linear_2037_576477" x1="197.231" y1="101.075" x2="175.875" y2="123.359" gradientUnits="userSpaceOnUse">
<stop stop-color="#7EA2FD"/>
<stop offset="1" stop-color="#245EF1"/>
</linearGradient>
<linearGradient id="paint74_linear_2037_576477" x1="192.498" y1="94.0429" x2="193.129" y2="122.848" gradientUnits="userSpaceOnUse">
<stop stop-color="#ABCDF6"/>
<stop offset="1" stop-color="#F2F6FA"/>
</linearGradient>
<linearGradient id="paint75_linear_2037_576477" x1="156.658" y1="119.647" x2="170.467" y2="119.414" gradientUnits="userSpaceOnUse">
<stop stop-color="#1A80FE"/>
<stop offset="0.88" stop-color="#1359C2"/>
<stop offset="1" stop-color="#0A50BE"/>
</linearGradient>
<linearGradient id="paint76_linear_2037_576477" x1="137.595" y1="121.034" x2="150.74" y2="120.813" gradientUnits="userSpaceOnUse">
<stop stop-color="#1A80FE"/>
<stop offset="0.88" stop-color="#1359C2"/>
<stop offset="1" stop-color="#0A50BE"/>
</linearGradient>
<linearGradient id="paint77_linear_2037_576477" x1="156.582" y1="89.3789" x2="157.562" y2="116.381" gradientUnits="userSpaceOnUse">
<stop stop-color="#96C0FD"/>
<stop offset="1" stop-color="#96C0FD" stop-opacity="0"/>
</linearGradient>
<linearGradient id="paint78_linear_2037_576477" x1="149.258" y1="82.5839" x2="160.484" y2="82.2906" gradientUnits="userSpaceOnUse">
<stop stop-color="#1A80FE"/>
<stop offset="0.88" stop-color="#1359C2"/>
<stop offset="1" stop-color="#0A50BE"/>
</linearGradient>
<linearGradient id="paint79_linear_2037_576477" x1="183.848" y1="89.795" x2="157.511" y2="101.9" gradientUnits="userSpaceOnUse">
<stop stop-color="#1A80FE"/>
<stop offset="0.88" stop-color="#1359C2"/>
<stop offset="1" stop-color="#0A50BE"/>
</linearGradient>
<linearGradient id="paint80_linear_2037_576477" x1="163.03" y1="87.9872" x2="136.692" y2="100.092" gradientUnits="userSpaceOnUse">
<stop stop-color="#1A80FE"/>
<stop offset="0.88" stop-color="#1359C2"/>
<stop offset="1" stop-color="#0A50BE"/>
</linearGradient>
<linearGradient id="paint81_linear_2037_576477" x1="125.403" y1="36.1487" x2="122.787" y2="46.0275" gradientUnits="userSpaceOnUse">
<stop stop-color="#549BFF"/>
<stop offset="1" stop-color="#549BFF" stop-opacity="0"/>
</linearGradient>
<linearGradient id="paint82_linear_2037_576477" x1="192.706" y1="38.3354" x2="195.251" y2="48.2543" gradientUnits="userSpaceOnUse">
<stop stop-color="#549BFF"/>
<stop offset="1" stop-color="#549BFF" stop-opacity="0"/>
</linearGradient>
<linearGradient id="paint83_linear_2037_576477" x1="191.476" y1="38.0459" x2="159.312" y2="46.825" gradientUnits="userSpaceOnUse">
<stop stop-color="#2C78D7"/>
<stop offset="0.88" stop-color="#0F5ACC"/>
<stop offset="1" stop-color="#0857D3"/>
</linearGradient>
<linearGradient id="paint84_linear_2037_576477" x1="183.167" y1="36.8186" x2="136.741" y2="57.0056" gradientUnits="userSpaceOnUse">
<stop stop-color="#357FD8"/>
<stop offset="1" stop-color="#357FD8" stop-opacity="0"/>
</linearGradient>
<linearGradient id="paint85_linear_2037_576477" x1="133.245" y1="28.3692" x2="181.5" y2="68.0196" gradientUnits="userSpaceOnUse">
<stop offset="0.1" stop-color="#2C78D7"/>
<stop offset="0.7" stop-color="#322FA9"/>
<stop offset="1" stop-color="#17156D"/>
</linearGradient>
</defs>
</svg>
